# xmcd
#
# Track frame offsets: 
#        183
#        18290
#        34663
#        53850
#        70880
#        86795
#        104480
#        119740
#        134040
#        150088
#        167078
#        184145
#        198203
#        220070
#        239110
#        256850
#        274998
#        288475
#
# Disc length: 4041 seconds
#
# Revision: 3
# Processed by: cddbd v1.5.1PL0 Copyright (c) Steve Scherf et al.
# Submitted via: ExactAudioCopy v0.95a3
#
DISCID=0f0fc712
DTITLE=Various Artist - Die Deutsche Schlager Parade
DYEAR=1988
DGENRE=Schlager
TTITLE0=Mario Jordan - Welch Ein Tag
TTITLE1=Andreas Martin - Mehr Als Sehnsucht
TTITLE2=Hanne Haller - Mein Lieber Mann
TTITLE3=Jürgen Drews - Faß Mich Bloß Nicht An
TTITLE4=Wolfgang Petry - Verlieben, Verloren, Vergessen, Verzeih`n
TTITLE5=Ireen Sheer - Heut` Abend Hab` Ich Kopfweh
TTITLE6=Matthias Reim - Ich Hab` Geträumt Von Dir
TTITLE7=Nino De Angelo - Flieger
TTITLE8=Kristina Bach - Antonio
TTITLE9=Blaue Engel - Licht Am Horizont
TTITLE10=Claudia Jung - Atemlos
TTITLE11=Dirk Busch - Ich Zieh` Den Bauch Nicht Mehr Ein
TTITLE12=Münchner Freiheit - Komm Zurück
TTITLE13=Juliane Werding - Avalon
TTITLE14=Roy Black - Rosen Ohne Dornen
TTITLE15=Valerie`s Garten - Nächstes Mal Am Ende Der Welt
TTITLE16=Karl Gott - Malaguena, Schwarze Rose
TTITLE17=Die Flippers - Santa Maria Goodbye
EXTD=
EXTT0=
EXTT1=
EXTT2=
EXTT3=
EXTT4=
EXTT5=
EXTT6=
EXTT7=
EXTT8=
EXTT9=
EXTT10=
EXTT11=
EXTT12=
EXTT13=
EXTT14=
EXTT15=
EXTT16=
EXTT17=
PLAYORDER=
